# Blender v3.2.0 OBJ File: ''
# www.blender.org
mtllib map5.mtl
o Cube
v 1.000000 1.972906 -1.000000
v 1.000000 -0.027094 -1.000000
v 1.000000 1.972906 1.000000
v 1.000000 -0.027094 1.000000
v -1.000000 1.972906 -1.000000
v -1.000000 -0.027094 -1.000000
v -1.000000 1.972906 1.000000
v -1.000000 -0.027094 1.000000
vt 0.625000 0.500000
vt 0.875000 0.500000
vt 0.875000 0.750000
vt 0.625000 0.750000
vt 0.375000 0.750000
vt 0.625000 1.000000
vt 0.375000 1.000000
vt 0.375000 0.000000
vt 0.625000 0.000000
vt 0.625000 0.250000
vt 0.375000 0.250000
vt 0.125000 0.500000
vt 0.375000 0.500000
vt 0.125000 0.750000
vn 0.0000 1.0000 0.0000
vn 0.0000 0.0000 1.0000
vn -1.0000 0.0000 0.0000
vn 0.0000 -1.0000 0.0000
vn 1.0000 0.0000 0.0000
vn 0.0000 0.0000 -1.0000
usemtl Material
s off
f 1/1/1 5/2/1 7/3/1 3/4/1
f 4/5/2 3/4/2 7/6/2 8/7/2
f 8/8/3 7/9/3 5/10/3 6/11/3
f 6/12/4 2/13/4 4/5/4 8/14/4
f 2/13/5 1/1/5 3/4/5 4/5/5
f 6/11/6 5/10/6 1/1/6 2/13/6
o Plane
v -50.000000 0.000000 50.000000
v 50.000000 0.000000 50.000000
v -50.000000 0.000000 -50.000000
v 50.000000 0.000000 -50.000000
vt 0.000000 0.000000
vt 1.000000 0.000000
vt 1.000000 1.000000
vt 0.000000 1.000000
vn 0.0000 1.0000 0.0000
usemtl Material.001
s off
f 9/15/7 10/16/7 12/17/7 11/18/7
o Cube.001
v -19.127666 3.894308 7.918456
v -19.127666 -1.566546 7.918456
v -19.127666 3.894308 13.379311
v -19.127666 -1.566546 13.379311
v -24.588520 3.894308 7.918456
v -24.588520 -1.566546 7.918456
v -24.588520 3.894308 13.379311
v -24.588520 -1.566546 13.379311
vt 0.625000 0.500000
vt 0.875000 0.500000
vt 0.875000 0.750000
vt 0.625000 0.750000
vt 0.375000 0.750000
vt 0.625000 1.000000
vt 0.375000 1.000000
vt 0.375000 0.000000
vt 0.625000 0.000000
vt 0.625000 0.250000
vt 0.375000 0.250000
vt 0.125000 0.500000
vt 0.375000 0.500000
vt 0.125000 0.750000
vn 0.0000 1.0000 0.0000
vn 0.0000 0.0000 1.0000
vn -1.0000 0.0000 0.0000
vn 0.0000 -1.0000 0.0000
vn 1.0000 0.0000 0.0000
vn 0.0000 0.0000 -1.0000
usemtl Material.002
s off
f 13/19/8 17/20/8 19/21/8 15/22/8
f 16/23/9 15/22/9 19/24/9 20/25/9
f 20/26/10 19/27/10 17/28/10 18/29/10
f 18/30/11 14/31/11 16/23/11 20/32/11
f 14/31/12 13/19/12 15/22/12 16/23/12
f 18/29/13 17/28/13 13/19/13 14/31/13
o Cube.002
v 0.199179 4.396908 22.546005
v 0.199179 -1.164811 22.546005
v 0.199179 4.396908 28.107723
v 0.199179 -1.164811 28.107723
v -5.362540 4.396908 22.546005
v -5.362540 -1.164811 22.546005
v -5.362540 4.396908 28.107723
v -5.362540 -1.164811 28.107723
vt 0.625000 0.500000
vt 0.875000 0.500000
vt 0.875000 0.750000
vt 0.625000 0.750000
vt 0.375000 0.750000
vt 0.625000 1.000000
vt 0.375000 1.000000
vt 0.375000 0.000000
vt 0.625000 0.000000
vt 0.625000 0.250000
vt 0.375000 0.250000
vt 0.125000 0.500000
vt 0.375000 0.500000
vt 0.125000 0.750000
vn 0.0000 1.0000 0.0000
vn 0.0000 0.0000 1.0000
vn -1.0000 0.0000 0.0000
vn 0.0000 -1.0000 0.0000
vn 1.0000 0.0000 0.0000
vn 0.0000 0.0000 -1.0000
usemtl Material.003
s off
f 21/33/14 25/34/14 27/35/14 23/36/14
f 24/37/15 23/36/15 27/38/15 28/39/15
f 28/40/16 27/41/16 25/42/16 26/43/16
f 26/44/17 22/45/17 24/37/17 28/46/17
f 22/45/18 21/33/18 23/36/18 24/37/18
f 26/43/19 25/42/19 21/33/19 22/45/19
o Cube.003
v 11.310566 -5.702553 -24.719280
v 10.490338 -12.248128 -10.013912
v 10.801521 6.359473 -19.378687
v 9.981293 -0.186102 -4.673320
v 3.593703 -5.815405 -25.199940
v 2.773475 -12.360980 -10.494572
v 3.084657 6.246621 -19.859346
v 2.264430 -0.298954 -5.153979
vt 0.625000 0.500000
vt 0.875000 0.500000
vt 0.875000 0.750000
vt 0.625000 0.750000
vt 0.375000 0.750000
vt 0.625000 1.000000
vt 0.375000 1.000000
vt 0.375000 0.000000
vt 0.625000 0.000000
vt 0.625000 0.250000
vt 0.375000 0.250000
vt 0.125000 0.500000
vt 0.375000 0.500000
vt 0.125000 0.750000
vn 0.0509 0.4061 -0.9124
vn -0.0386 0.9137 0.4046
vn -0.9980 -0.0146 -0.0622
vn -0.0509 -0.4061 0.9124
vn 0.9980 0.0146 0.0622
vn 0.0386 -0.9137 -0.4046
usemtl Material.004
s off
f 29/47/20 33/48/20 35/49/20 31/50/20
f 32/51/21 31/50/21 35/52/21 36/53/21
f 36/54/22 35/55/22 33/56/22 34/57/22
f 34/58/23 30/59/23 32/51/23 36/60/23
f 30/59/24 29/47/24 31/50/24 32/51/24
f 34/57/25 33/56/25 29/47/25 30/59/25
o Cube.004
v 32.045280 4.684248 16.792440
v 32.045280 -2.840661 16.792440
v 32.045280 4.684248 39.634537
v 32.045280 -2.840661 39.634537
v 9.203184 4.684248 16.792440
v 9.203184 -2.840661 16.792440
v 9.203184 4.684248 39.634537
v 9.203184 -2.840661 39.634537
vt 0.625000 0.500000
vt 0.875000 0.500000
vt 0.875000 0.750000
vt 0.625000 0.750000
vt 0.375000 0.750000
vt 0.625000 1.000000
vt 0.375000 1.000000
vt 0.375000 0.000000
vt 0.625000 0.000000
vt 0.625000 0.250000
vt 0.375000 0.250000
vt 0.125000 0.500000
vt 0.375000 0.500000
vt 0.125000 0.750000
vn 0.0000 1.0000 0.0000
vn 0.0000 0.0000 1.0000
vn -1.0000 0.0000 0.0000
vn 0.0000 -1.0000 0.0000
vn 1.0000 0.0000 0.0000
vn 0.0000 0.0000 -1.0000
usemtl Material.005
s off
f 37/61/26 41/62/26 43/63/26 39/64/26
f 40/65/27 39/64/27 43/66/27 44/67/27
f 44/68/28 43/69/28 41/70/28 42/71/28
f 42/72/29 38/73/29 40/65/29 44/74/29
f 38/73/30 37/61/30 39/64/30 40/65/30
f 42/71/31 41/70/31 37/61/31 38/73/31
o Icosphere
v -20.951904 -9.032270 -18.447212
v -14.768572 -4.308678 -13.954811
v -23.313681 -4.308681 -11.178288
v -28.594910 -4.308644 -18.447212
v -23.313681 -4.308681 -25.716137
v -14.768572 -4.308678 -22.939613
v -18.590128 3.334440 -11.178288
v -27.135237 3.334438 -13.954811
v -27.135237 3.334438 -22.939613
v -18.590128 3.334440 -25.716137
v -13.308898 3.334404 -18.447212
v -20.951904 8.058029 -18.447212
v -22.340111 -7.756090 -14.174678
v -17.317459 -7.756088 -15.806664
v -18.705650 -4.979627 -11.534086
v -13.682991 -4.979612 -18.447212
v -17.317459 -7.756088 -21.087761
v -25.444344 -7.756066 -18.447212
v -26.832586 -4.979615 -14.174664
v -22.340111 -7.756090 -22.719746
v -26.832586 -4.979615 -22.719761
v -18.705650 -4.979627 -25.360338
v -12.824972 -0.487120 -15.806653
v -12.824972 -0.487120 -21.087772
v -20.951904 -0.487120 -9.902063
v -15.929188 -0.487120 -11.534043
v -29.078836 -0.487120 -15.806653
v -25.974621 -0.487120 -11.534043
v -25.974621 -0.487120 -25.360382
v -29.078836 -0.487120 -21.087772
v -15.929188 -0.487120 -25.360382
v -20.951904 -0.487120 -26.992361
v -15.071222 4.005374 -14.174664
v -23.198158 4.005387 -11.534086
v -28.220818 4.005372 -18.447212
v -23.198158 4.005387 -25.360338
v -15.071222 4.005374 -22.719761
v -19.563698 6.781849 -14.174678
v -16.459465 6.781826 -18.447212
v -24.586349 6.781847 -15.806664
v -24.586349 6.781847 -21.087761
v -19.563698 6.781849 -22.719746
vt 0.181819 0.000000
vt 0.227273 0.078731
vt 0.136365 0.078731
vt 0.272728 0.157461
vt 0.318182 0.078731
vt 0.363637 0.157461
vt 0.909091 0.000000
vt 0.954545 0.078731
vt 0.863636 0.078731
vt 0.727273 0.000000
vt 0.772727 0.078731
vt 0.681818 0.078731
vt 0.545455 0.000000
vt 0.590909 0.078731
vt 0.500000 0.078731
vt 0.318182 0.236191
vt 0.090910 0.157461
vt 0.181819 0.157461
vt 0.136365 0.236191
vt 0.818182 0.157461
vt 0.909091 0.157461
vt 0.863636 0.236191
vt 0.636364 0.157461
vt 0.727273 0.157461
vt 0.681818 0.236191
vt 0.454546 0.157461
vt 0.545455 0.157461
vt 0.500000 0.236191
vt 0.227273 0.236191
vt 0.045455 0.236191
vt 0.772727 0.236191
vt 0.590909 0.236191
vt 0.409092 0.236191
vt 0.181819 0.314921
vt 0.272728 0.314921
vt 0.227273 0.393651
vt 0.000000 0.314921
vt 0.090910 0.314921
vt 0.045455 0.393651
vt 0.727273 0.314921
vt 0.818182 0.314921
vt 0.772727 0.393651
vt 0.545455 0.314921
vt 0.636364 0.314921
vt 0.590909 0.393651
vt 0.363637 0.314921
vt 0.454546 0.314921
vt 0.409092 0.393651
vt 0.500000 0.393651
vt 0.454546 0.472382
vt 0.681818 0.393651
vt 0.636364 0.472382
vt 0.863636 0.393651
vt 0.818182 0.472382
vt 0.909091 0.314921
vt 0.136365 0.393651
vt 0.090910 0.472382
vt 0.318182 0.393651
vt 0.272728 0.472382
vt 0.954545 0.236191
vt 1.000000 0.157461
vt 0.409092 0.078731
vt 0.363637 0.000000
vn 0.1024 -0.9435 0.3151
vn 0.7002 -0.6617 0.2680
vn -0.2680 -0.9435 0.1947
vn -0.2680 -0.9435 -0.1947
vn 0.1024 -0.9435 -0.3151
vn 0.9050 -0.3304 0.2680
vn 0.0247 -0.3304 0.9435
vn -0.8897 -0.3304 0.3151
vn -0.5746 -0.3304 -0.7488
vn 0.5346 -0.3304 -0.7779
vn 0.8026 -0.1256 0.5831
vn -0.3066 -0.1256 0.9435
vn -0.9921 -0.1256 0.0000
vn -0.3066 -0.1256 -0.9435
vn 0.8026 -0.1256 -0.5831
vn 0.4089 0.6617 0.6284
vn -0.4713 0.6617 0.5831
vn -0.7002 0.6617 -0.2680
vn 0.0385 0.6617 -0.7488
vn 0.7240 0.6617 -0.1947
vn 0.2680 0.9435 -0.1947
vn 0.4911 0.7947 -0.3568
vn 0.4089 0.6617 -0.6284
vn -0.1024 0.9435 -0.3151
vn -0.1876 0.7947 -0.5773
vn -0.4713 0.6617 -0.5831
vn -0.3313 0.9435 0.0000
vn -0.6071 0.7947 0.0000
vn -0.7002 0.6617 0.2680
vn -0.1024 0.9435 0.3151
vn -0.1876 0.7947 0.5773
vn 0.0385 0.6617 0.7488
vn 0.2680 0.9435 0.1947
vn 0.4911 0.7947 0.3568
vn 0.7240 0.6617 0.1947
vn 0.8897 0.3304 -0.3151
vn 0.7947 0.1876 -0.5773
vn 0.5746 0.3304 -0.7488
vn -0.0247 0.3304 -0.9435
vn -0.3035 0.1876 -0.9342
vn -0.5346 0.3304 -0.7779
vn -0.9050 0.3304 -0.2680
vn -0.9822 0.1876 0.0000
vn -0.9050 0.3304 0.2680
vn -0.5346 0.3304 0.7779
vn -0.3035 0.1876 0.9342
vn -0.0247 0.3304 0.9435
vn 0.5746 0.3304 0.7488
vn 0.7947 0.1876 0.5773
vn 0.8897 0.3304 0.3151
vn 0.3066 0.1256 -0.9435
vn 0.3035 -0.1876 -0.9342
vn 0.0247 -0.3304 -0.9435
vn -0.8026 0.1256 -0.5831
vn -0.7947 -0.1876 -0.5773
vn -0.8897 -0.3304 -0.3151
vn -0.8026 0.1256 0.5831
vn -0.7947 -0.1876 0.5773
vn -0.5746 -0.3304 0.7488
vn 0.3066 0.1256 0.9435
vn 0.3035 -0.1876 0.9342
vn 0.5346 -0.3304 0.7779
vn 0.9921 0.1256 0.0000
vn 0.9822 -0.1876 0.0000
vn 0.9050 -0.3304 -0.2680
vn 0.4713 -0.6617 -0.5831
vn 0.1876 -0.7947 -0.5773
vn -0.0385 -0.6617 -0.7488
vn -0.4089 -0.6617 -0.6284
vn -0.4911 -0.7947 -0.3568
vn -0.7240 -0.6617 -0.1947
vn -0.7240 -0.6617 0.1947
vn -0.4911 -0.7947 0.3568
vn -0.4089 -0.6617 0.6284
vn 0.7002 -0.6617 -0.2680
vn 0.6071 -0.7947 0.0000
vn 0.3313 -0.9435 0.0000
vn -0.0385 -0.6617 0.7488
vn 0.1876 -0.7947 0.5773
vn 0.4713 -0.6617 0.5831
usemtl Material.006
s off
f 45/75/32 58/76/32 57/77/32
f 46/78/33 58/79/33 60/80/33
f 45/81/34 57/82/34 62/83/34
f 45/84/35 62/85/35 64/86/35
f 45/87/36 64/88/36 61/89/36
f 46/78/37 60/80/37 67/90/37
f 47/91/38 59/92/38 69/93/38
f 48/94/39 63/95/39 71/96/39
f 49/97/40 65/98/40 73/99/40
f 50/100/41 66/101/41 75/102/41
f 46/78/42 67/90/42 70/103/42
f 47/91/43 69/93/43 72/104/43
f 48/94/44 71/96/44 74/105/44
f 49/97/45 73/99/45 76/106/45
f 50/100/46 75/102/46 68/107/46
f 51/108/47 77/109/47 82/110/47
f 52/111/48 78/112/48 84/113/48
f 53/114/49 79/115/49 85/116/49
f 54/117/50 80/118/50 86/119/50
f 55/120/51 81/121/51 83/122/51
f 83/122/52 86/123/52 56/124/52
f 83/122/53 81/121/53 86/123/53
f 81/121/54 54/117/54 86/123/54
f 86/119/55 85/125/55 56/126/55
f 86/119/56 80/118/56 85/125/56
f 80/118/57 53/114/57 85/125/57
f 85/116/58 84/127/58 56/128/58
f 85/116/59 79/115/59 84/127/59
f 79/115/60 52/129/60 84/127/60
f 84/113/61 82/130/61 56/131/61
f 84/113/62 78/112/62 82/130/62
f 78/112/63 51/108/63 82/130/63
f 82/110/64 83/132/64 56/133/64
f 82/110/65 77/109/65 83/132/65
f 77/109/66 55/120/66 83/132/66
f 68/107/67 81/121/67 55/120/67
f 68/107/68 75/102/68 81/121/68
f 75/102/69 54/117/69 81/121/69
f 76/106/70 80/118/70 54/117/70
f 76/106/71 73/99/71 80/118/71
f 73/99/72 53/114/72 80/118/72
f 74/105/73 79/115/73 53/114/73
f 74/105/74 71/96/74 79/115/74
f 71/96/75 52/129/75 79/115/75
f 72/104/76 78/112/76 52/111/76
f 72/104/77 69/93/77 78/112/77
f 69/93/78 51/108/78 78/112/78
f 70/103/79 77/109/79 51/108/79
f 70/103/80 67/90/80 77/109/80
f 67/90/81 55/120/81 77/109/81
f 75/102/82 76/106/82 54/117/82
f 75/102/83 66/101/83 76/106/83
f 66/101/84 49/97/84 76/106/84
f 73/99/85 74/105/85 53/114/85
f 73/99/86 65/98/86 74/105/86
f 65/98/87 48/94/87 74/105/87
f 71/96/88 72/134/88 52/129/88
f 71/96/89 63/95/89 72/134/89
f 63/95/90 47/135/90 72/134/90
f 69/93/91 70/103/91 51/108/91
f 69/93/92 59/92/92 70/103/92
f 59/92/93 46/78/93 70/103/93
f 67/90/94 68/107/94 55/120/94
f 67/90/95 60/80/95 68/107/95
f 60/80/96 50/100/96 68/107/96
f 61/89/97 66/101/97 50/100/97
f 61/89/98 64/88/98 66/101/98
f 64/88/99 49/97/99 66/101/99
f 64/86/100 65/98/100 49/97/100
f 64/86/101 62/85/101 65/98/101
f 62/85/102 48/94/102 65/98/102
f 62/83/103 63/95/103 48/94/103
f 62/83/104 57/82/104 63/95/104
f 57/82/105 47/135/105 63/95/105
f 60/80/106 61/136/106 50/100/106
f 60/80/107 58/79/107 61/136/107
f 58/79/108 45/137/108 61/136/108
f 57/77/109 59/92/109 47/91/109
f 57/77/110 58/76/110 59/92/110
f 58/76/111 46/78/111 59/92/111
