# Blender v3.2.0 OBJ File: 'bean.blend'
# www.blender.org
mtllib bean7.mtl
o Icosphere
v 0.000000 -4.999745 0.000000
v 2.126505 -4.253055 1.544978
v -0.812236 -4.253056 2.499849
v 3.617852 -2.235983 2.628493
v 4.253022 -2.628546 -0.000000
v -2.628515 -4.253041 0.000000
v -0.812236 -4.253056 -2.499849
v 2.126505 -4.253055 -1.544978
v 4.755047 -0.000000 1.544984
v -1.381870 -2.235985 4.253029
v 1.314277 -2.628554 4.044851
v 0.000000 0.000000 4.999744
v -4.471903 -2.235964 -0.000000
v -3.440771 -2.628546 2.499857
v -4.755047 -0.000000 1.544984
v -1.381870 -2.235985 -4.253029
v -3.440771 -2.628546 -2.499857
v -2.938778 -0.000000 -4.044877
v 3.617852 -2.235984 -2.628493
v 1.314277 -2.628554 -4.044851
v 2.938778 -0.000000 -4.044877
v 2.938778 0.000000 4.044877
v -2.938778 0.000000 4.044877
v -4.755047 0.000000 -1.544984
v 0.000000 -0.000000 -4.999744
v 4.755047 0.000000 -1.544984
v 1.381870 10.625673 4.253029
v 3.440771 11.018236 2.499857
v 0.812236 12.642745 2.499849
v -3.617852 10.625672 2.628493
v -1.314277 11.018243 4.044852
v -2.126505 12.642743 1.544978
v -3.617852 10.625672 -2.628492
v -4.253022 11.018235 -0.000000
v -2.126505 12.642743 -1.544978
v 1.381870 10.625673 -4.253029
v -1.314277 11.018243 -4.044852
v 0.812236 12.642745 -2.499849
v 4.471903 10.625653 -0.000000
v 3.440771 11.018236 -2.499857
v 2.628515 12.642731 0.000000
v 0.000000 13.389434 0.000000
vt 0.450989 0.959064
vt 0.503305 0.866545
vt 0.557272 0.958109
vt 0.555619 0.774024
vt 0.449338 0.774979
vt 0.501652 0.682459
vt 0.019251 0.226543
vt 0.071567 0.134023
vt 0.125535 0.225588
vt 0.127186 0.409673
vt 0.179502 0.317153
vt 0.233469 0.408718
vt 0.235120 0.592804
vt 0.287436 0.500284
vt 0.341403 0.591849
vt 0.607934 0.681505
vt 0.663554 0.957155
vt 0.609587 0.865589
vt 0.715868 0.864634
vt 0.231816 0.224633
vt 0.177849 0.133067
vt 0.284131 0.132113
vt 0.339751 0.407763
vt 0.285783 0.316198
vt 0.392066 0.315244
vt 0.447685 0.590894
vt 0.393718 0.499328
vt 0.500000 0.498374
vt 0.661902 0.773070
vt 0.769836 0.956200
vt 0.338098 0.223678
vt 0.446033 0.406809
vt 0.553967 0.589939
vt 0.768183 0.772115
vt 0.714216 0.680550
vt 0.820498 0.679595
vt 0.876118 0.955246
vt 0.822151 0.863680
vt 0.928433 0.862726
vt 0.444380 0.222723
vt 0.390413 0.131158
vt 0.496695 0.130204
vt 0.552315 0.405854
vt 0.498347 0.314289
vt 0.604629 0.313334
vt 0.660249 0.588984
vt 0.606282 0.497419
vt 0.712563 0.496464
vt 0.658597 0.404900
vt 0.764879 0.403944
vt 0.550662 0.221769
vt 0.656945 0.220814
vt 0.442728 0.038639
vt 0.549010 0.037683
vt 0.336446 0.039593
vt 0.874465 0.771160
vt 0.980748 0.770205
vt 0.766531 0.588030
vt 0.872814 0.587074
vt 0.230164 0.040548
vt 0.123882 0.041502
vt 0.395370 0.683413
vt 0.343055 0.775934
vn 0.1024 -0.9435 0.3151
vn 0.7002 -0.6617 0.2680
vn -0.2680 -0.9435 0.1947
vn -0.2680 -0.9435 -0.1947
vn 0.1024 -0.9435 -0.3151
vn 0.9050 -0.3304 0.2680
vn 0.0247 -0.3304 0.9435
vn -0.8897 -0.3304 0.3151
vn -0.5746 -0.3304 -0.7488
vn 0.5346 -0.3304 -0.7779
vn 0.8026 -0.1256 0.5831
vn -0.3066 -0.1256 0.9435
vn -0.9921 -0.1256 -0.0000
vn -0.3066 -0.1256 -0.9435
vn 0.8026 -0.1256 -0.5831
vn 0.4089 0.6617 0.6284
vn -0.4713 0.6617 0.5831
vn -0.7002 0.6617 -0.2680
vn 0.0385 0.6617 -0.7488
vn 0.7240 0.6617 -0.1947
vn 0.2680 0.9435 -0.1947
vn 0.4911 0.7947 -0.3568
vn 0.4089 0.6617 -0.6284
vn -0.1024 0.9435 -0.3151
vn -0.1876 0.7947 -0.5773
vn -0.4713 0.6617 -0.5831
vn -0.3313 0.9435 0.0000
vn -0.6071 0.7947 0.0000
vn -0.7002 0.6617 0.2680
vn -0.1024 0.9435 0.3151
vn -0.1876 0.7947 0.5773
vn 0.0385 0.6617 0.7488
vn 0.2680 0.9435 0.1947
vn 0.4911 0.7947 0.3568
vn 0.7240 0.6617 0.1947
vn 0.9259 0.0784 -0.3696
vn 0.8082 0.0455 -0.5872
vn 0.6376 0.0784 -0.7664
vn -0.0654 0.0784 -0.9948
vn -0.3087 0.0455 -0.9501
vn -0.5318 0.0784 -0.8432
vn -0.9663 0.0784 -0.2452
vn -0.9990 0.0455 0.0000
vn -0.9663 0.0784 0.2452
vn -0.5318 0.0784 0.8432
vn -0.3087 0.0455 0.9501
vn -0.0654 0.0784 0.9948
vn 0.6376 0.0784 0.7664
vn 0.8082 0.0455 0.5872
vn 0.9259 0.0784 0.3696
vn 0.3089 0.0266 -0.9507
vn 0.3035 -0.1876 -0.9342
vn 0.0247 -0.3304 -0.9435
vn -0.8087 0.0266 -0.5876
vn -0.7947 -0.1876 -0.5773
vn -0.8897 -0.3304 -0.3151
vn -0.8087 0.0266 0.5876
vn -0.7947 -0.1876 0.5773
vn -0.5746 -0.3304 0.7488
vn 0.3089 0.0266 0.9507
vn 0.3035 -0.1876 0.9342
vn 0.5346 -0.3304 0.7779
vn 0.9996 0.0266 0.0000
vn 0.9822 -0.1876 -0.0000
vn 0.9050 -0.3304 -0.2680
vn 0.4713 -0.6617 -0.5831
vn 0.1876 -0.7947 -0.5773
vn -0.0385 -0.6617 -0.7488
vn -0.4089 -0.6617 -0.6284
vn -0.4911 -0.7947 -0.3568
vn -0.7240 -0.6617 -0.1947
vn -0.7240 -0.6617 0.1947
vn -0.4911 -0.7947 0.3568
vn -0.4089 -0.6617 0.6284
vn 0.7002 -0.6617 -0.2680
vn 0.6071 -0.7947 0.0000
vn 0.3313 -0.9435 0.0000
vn -0.0385 -0.6617 0.7488
vn 0.1876 -0.7947 0.5773
vn 0.4713 -0.6617 0.5831
usemtl ace
s 1
f 1/1/1 2/2/1 3/3/1
f 4/4/2 2/5/2 5/6/2
f 1/7/3 3/8/3 6/9/3
f 1/10/4 6/11/4 7/12/4
f 1/13/5 7/14/5 8/15/5
f 4/4/6 5/6/6 9/16/6
f 10/17/7 11/18/7 12/19/7
f 13/20/8 14/21/8 15/22/8
f 16/23/9 17/24/9 18/25/9
f 19/26/10 20/27/10 21/28/10
f 4/4/11 9/16/11 22/29/11
f 10/17/12 12/19/12 23/30/12
f 13/20/13 15/22/13 24/31/13
f 16/23/14 18/25/14 25/32/14
f 19/26/15 21/28/15 26/33/15
f 27/34/16 28/35/16 29/36/16
f 30/37/17 31/38/17 32/39/17
f 33/40/18 34/41/18 35/42/18
f 36/43/19 37/44/19 38/45/19
f 39/46/20 40/47/20 41/48/20
f 41/48/21 38/49/21 42/50/21
f 41/48/22 40/47/22 38/49/22
f 40/47/23 36/43/23 38/49/23
f 38/45/24 35/51/24 42/52/24
f 38/45/25 37/44/25 35/51/25
f 37/44/26 33/40/26 35/51/26
f 35/42/27 32/53/27 42/54/27
f 35/42/28 34/41/28 32/53/28
f 34/41/29 30/55/29 32/53/29
f 32/39/30 29/56/30 42/57/30
f 32/39/31 31/38/31 29/56/31
f 31/38/32 27/34/32 29/56/32
f 29/36/33 41/58/33 42/59/33
f 29/36/34 28/35/34 41/58/34
f 28/35/35 39/46/35 41/58/35
f 26/33/36 40/47/36 39/46/36
f 26/33/37 21/28/37 40/47/37
f 21/28/38 36/43/38 40/47/38
f 25/32/39 37/44/39 36/43/39
f 25/32/40 18/25/40 37/44/40
f 18/25/41 33/40/41 37/44/41
f 24/31/42 34/41/42 33/40/42
f 24/31/43 15/22/43 34/41/43
f 15/22/44 30/55/44 34/41/44
f 23/30/45 31/38/45 30/37/45
f 23/30/46 12/19/46 31/38/46
f 12/19/47 27/34/47 31/38/47
f 22/29/48 28/35/48 27/34/48
f 22/29/49 9/16/49 28/35/49
f 9/16/50 39/46/50 28/35/50
f 21/28/51 25/32/51 36/43/51
f 21/28/52 20/27/52 25/32/52
f 20/27/53 16/23/53 25/32/53
f 18/25/54 24/31/54 33/40/54
f 18/25/55 17/24/55 24/31/55
f 17/24/56 13/20/56 24/31/56
f 15/22/57 23/60/57 30/55/57
f 15/22/58 14/21/58 23/60/58
f 14/21/59 10/61/59 23/60/59
f 12/19/60 22/29/60 27/34/60
f 12/19/61 11/18/61 22/29/61
f 11/18/62 4/4/62 22/29/62
f 9/16/63 26/33/63 39/46/63
f 9/16/64 5/6/64 26/33/64
f 5/6/65 19/26/65 26/33/65
f 8/15/66 20/27/66 19/26/66
f 8/15/67 7/14/67 20/27/67
f 7/14/68 16/23/68 20/27/68
f 7/12/69 17/24/69 16/23/69
f 7/12/70 6/11/70 17/24/70
f 6/11/71 13/20/71 17/24/71
f 6/9/72 14/21/72 13/20/72
f 6/9/73 3/8/73 14/21/73
f 3/8/74 10/61/74 14/21/74
f 5/6/75 8/62/75 19/26/75
f 5/6/76 2/5/76 8/62/76
f 2/5/77 1/63/77 8/62/77
f 3/3/78 11/18/78 10/17/78
f 3/3/79 2/2/79 11/18/79
f 2/2/80 4/4/80 11/18/80
